<svg width="1440" height="918" viewBox="0 0 1440 918" fill="none" xmlns="http://www.w3.org/2000/svg">
<mask id="mask0_727_1031" style="mask-type:alpha" maskUnits="userSpaceOnUse" x="0" y="50" width="1448" height="768">
<rect y="50" width="1448" height="768" fill="#F8F8F8"/>
</mask>
<g mask="url(#mask0_727_1031)">
<g opacity="0.39">
<path opacity="0.39" d="M1416.28 -149.963L1218.37 800.563L1215.93 812.227L1213.56 800.554L1103.49 259.35L1103.32 258.595L1103.78 257.992L1416.28 -149.963ZM1416.28 -149.963L1106.49 260.025L1106.79 258.667L1218.35 799.567L1213.55 799.558L1416.28 -149.963Z" fill="#2AA0FF"/>
<path opacity="0.39" d="M664.253 413.397L1217.24 798.285L1213.85 800.497L1185.88 665.284L1158.29 529.981L1103.44 259.344L1105.77 260.664L664.253 413.397ZM664.253 413.397L1104.56 257.358L1106.48 256.684L1106.89 258.679L1162.84 529.057L1190.67 664.297L1218.11 799.629L1219.19 805.002L1214.7 801.815L664.253 413.397Z" fill="#2AA0FF"/>
<path opacity="0.39" d="M1081.72 468.581L1914.43 1244.84L1910.8 1247.61L1778.39 1003.69L1646.37 759.562L1382.35 271.286L1384.22 271.742L1081.72 468.581ZM1081.72 468.581L1382.79 269.567L1383.99 268.776L1384.66 270.023L1649.96 757.614L1782.6 1001.4L1914.86 1245.39L1921.68 1257.97L1911.23 1248.16L1081.72 468.581Z" fill="#2AA0FF"/>
<path opacity="0.39" d="M1215.96 800.06L938.751 607.512L662.913 415.26L666.067 412.094C699.357 458.092 732.827 503.995 765.879 550.175L865.269 688.58L1064.05 965.391L1062.02 965.269L1215.96 800.06ZM1215.96 800.06L1063.95 967.012L1062.87 968.22L1061.92 966.89L861.958 690.944L761.966 552.958C728.523 507.035 695.577 460.774 662.392 414.695L654.5 403.725L665.546 411.529L941.437 605.919L1215.96 800.06Z" fill="#2AA0FF"/>
<path opacity="0.39" d="M1215.96 800.06L1375.66 1002.8L1535.71 1206.86L1541.88 1214.74L1532.91 1210.16L1415.02 1149.91L1297.44 1089.07L1062.28 967.41L1060.61 966.554L1061.86 965.177C1087.53 937.423 1113.29 909.681 1139.08 882.298L1215.96 800.06ZM1215.96 800.06L1139.82 883.909C1114.6 911.864 1089.4 939.513 1064.06 967.097L1063.67 964.844L1299.49 1085.24L1417.39 1145.45L1535 1206.22L1532.24 1209.51L1374.28 1005.44L1215.96 800.06Z" fill="#2AA0FF"/>
<path opacity="0.39" d="M1215.96 800.06L1535.39 1207.1L1532.67 1206.96L1739.8 990.649L1843.47 882.603L1947.43 774.832L1949.09 778.505L1215.96 800.06ZM1215.96 800.06L1948.97 774.203L1954.33 773.999L1950.63 777.876L1847.07 886.007L1743.21 993.863L1535.28 1209.4L1533.82 1210.9L1532.56 1209.26L1215.96 800.06Z" fill="#2AA0FF"/>
<path opacity="0.39" d="M494.778 1652.75L661.912 413.093L662.697 407.3L666.12 412.054L865.48 688.418L1064.52 965.026L1065.37 966.225L1064.43 967.358L494.778 1652.75ZM494.778 1652.75L1061.51 964.942L1061.44 967.254L861.72 691.127L662.333 414.782L666.541 413.742L494.778 1652.75Z" fill="#2AA0FF"/>
<path opacity="0.39" d="M1063 966.107L496.376 1654L494.737 1655.96L493.144 1653.95L303.545 1412.39L114.529 1170.37L112.413 1167.63L115.79 1166.94L1063 966.107ZM1063 966.107L116.736 1171.16L117.997 1167.72L307.516 1409.35L496.452 1651.42L493.246 1651.36L1063 966.107Z" fill="#2AA0FF"/>
<path opacity="0.39" d="M-120.053 536.11L118.198 1168.36L119.543 1171.9L115.814 1171.11L-163.184 1111.11L-441.993 1050.22L-444.725 1049.63L-443.25 1047.28L-120.053 536.11ZM-120.053 536.11L-439.926 1049.35L-441.164 1046.44L-162.147 1106.3L116.68 1167.05L114.295 1169.8L-120.053 536.11Z" fill="#2AA0FF"/>
<path opacity="0.39" d="M-120.053 536.11L-563.777 856.1L-563.205 853.191L-501.233 950.011L-439.6 1047.05L-443.553 1047.05L-120.053 536.11ZM-120.053 536.11L-439.596 1049.56L-441.555 1052.69L-443.55 1049.56L-505.389 952.644L-566.89 855.507L-567.972 853.78L-566.317 852.598L-120.053 536.11Z" fill="#2AA0FF"/>
<path opacity="0.39" d="M447.527 1098.06L116.561 1170.49L116.242 1170.57L115.94 1170.51L-442.113 1050.77L-441.438 1045.81L447.527 1098.06ZM447.527 1098.06L-441.718 1050.84L-441.043 1045.89L116.554 1167.65L115.933 1167.67L447.527 1098.06Z" fill="#2AA0FF"/>
<path opacity="0.39" d="M1063 966.107L1808.51 1268.49L1818.89 1272.7L1807.67 1272.9L1621.57 1276.07L1435.45 1278.74L1063.2 1284.1L1061.75 1284.13L1061.74 1282.71C1061.73 1229.74 1061.97 1176.78 1062.33 1124.02L1063 966.107ZM1063 966.107L1064.6 1282.7L1063.17 1281.28L1435.38 1274.56L1621.49 1271.18L1807.61 1268.3L1806.77 1272.71L1063 966.107Z" fill="#2AA0FF"/>
<path opacity="0.39" d="M1105.15 258.999L1259.82 53.6089L1414.89 -150.995L1417.33 -148.547L1041.78 133.725L665.244 414.734L663.694 411.857L884.126 335.152L1105.15 258.999ZM1105.15 258.999L885.28 337.244L664.813 414.939L654.678 418.5L663.262 412.061L1038.78 129.736L1415.25 -151.351L1425.23 -158.816L1417.67 -148.93L1261.61 55.4272L1105.15 258.999Z" fill="#2AA0FF"/>
<path opacity="0.39" d="M-172.019 1294.37L898.735 369.844L899.971 368.774L901.417 369.553L1082.91 466.415L1086.56 468.357L1083.09 470.63L-172.019 1294.37ZM-172.019 1294.37L1080.37 466.511L1080.55 470.726L899.183 373.691L901.864 373.4L-172.019 1294.37Z" fill="#2AA0FF"/>
<path opacity="0.39" d="M1440.91 376.447L1198.04 948.916L1197.69 949.77L1196.77 949.888L386.689 1053.15L375.987 1054.51L385.08 1048.73L1440.91 376.447ZM1440.91 376.447L387.693 1052.76L386.083 1048.34L1196.37 946.638L1195.1 947.61L1440.91 376.447Z" fill="#2AA0FF"/>
<path opacity="0.39" d="M1949.04 776.367L1806.41 220.397L1664.55 -335.781L1668.56 -336.088L1608.35 313.836L1547.18 963.659L1544.84 962.054L1937.01 771.869L1936.54 772.352L2057.38 481.589L1938.35 773.108L1938.19 773.442L1937.85 773.612L1546.26 964.985L1543.67 966.258L1543.93 963.379L1603.72 313.4L1664.49 -336.451L1665.62 -348.333L1668.53 -336.779L1809.19 219.693L1949.04 776.367Z" fill="#2AA0FF"/>
<path opacity="0.39" d="M2057.38 481.589L1720.57 377.428L1382.97 272.361L1378.8 271.062L1382.65 269.004L1818.49 36.5452L2255.01 -194.667L2258.87 -196.698L2257.63 -192.526L2157.66 145.107L2057.38 481.589ZM2057.38 481.589L2155.61 143.445L2254.12 -193.527L2256.74 -191.387L1820.88 41.0459L1384.36 272.258L1384.04 268.901L1720.3 374.788L2057.38 481.589Z" fill="#2AA0FF"/>
<path opacity="0.39" d="M992.166 -147.998L839.011 895.713L836.955 893.599L1387.03 831.711L1937.2 770.638L1935.94 774.239L992.166 -147.998ZM992.166 -147.998L1938.95 771.221L1942.16 774.338L1937.7 774.823L1387.58 836.446L837.38 897.253L834.966 897.508L835.324 895.139L992.166 -147.998Z" fill="#2AA0FF"/>
<path opacity="0.39" d="M837.192 895.429L747.76 816.801C717.887 790.64 688.173 764.356 658.525 737.939L480.411 579.859L479.088 578.693L480.112 577.239L607.313 395.368L735.389 214.085L863.465 32.8007C906.076 -27.6773 949.32 -87.7178 992.214 -147.993C950.04 -87.2216 908.211 -26.1686 865.754 34.4004L738.595 216.324L611.435 398.248L483.426 579.564L483.107 576.918L660.437 735.891C690.032 762.348 719.522 788.887 748.92 815.579L837.192 895.429Z" fill="#2AA0FF"/>
</g>
</g>
</svg>
