<svg width="63" height="63" viewBox="0 0 63 63" fill="none" xmlns="http://www.w3.org/2000/svg">
<path d="M50.7061 43.1355C49.3264 43.1427 47.9742 43.5222 46.7923 44.234L39.4046 36.8444C40.4572 35.2647 41.0188 33.4088 41.0188 31.5105C41.0188 29.6122 40.4572 27.7563 39.4046 26.1765L44.3394 21.2417C45.5878 21.843 47.0087 21.9831 48.3504 21.6371C49.6921 21.2911 50.868 20.4813 51.6699 19.3513C52.4718 18.2213 52.8478 16.8439 52.7314 15.4632C52.6149 14.0825 52.0136 12.7875 51.0338 11.8078C50.054 10.828 48.7591 10.2266 47.3783 10.1102C45.9976 9.99376 44.6203 10.3698 43.4902 11.1716C42.3602 11.9735 41.5505 13.1494 41.2045 14.4912C40.8585 15.8329 40.9985 17.2538 41.5998 18.5021L36.665 23.4369C35.0852 22.3844 33.2294 21.8227 31.3311 21.8227C29.4328 21.8227 27.5769 22.3844 25.9971 23.4369L18.6075 16.0473C19.319 14.866 19.6985 13.5145 19.7061 12.1355C19.7061 10.6027 19.2515 9.1043 18.3999 7.82982C17.5484 6.55534 16.338 5.562 14.9219 4.97542C13.5057 4.38884 11.9475 4.23537 10.4441 4.5344C8.94076 4.83344 7.55984 5.57156 6.47598 6.65541C5.39212 7.73927 4.65401 9.12019 4.35497 10.6235C4.05594 12.1269 4.20941 13.6852 4.79599 15.1013C5.38257 16.5174 6.37591 17.7278 7.65039 18.5794C8.92487 19.431 10.4233 19.8855 11.9561 19.8855C13.3358 19.8783 14.6879 19.4988 15.8698 18.7869L23.2575 26.1765C22.2049 27.7563 21.6433 29.6122 21.6433 31.5105C21.6433 33.4088 22.2049 35.2647 23.2575 36.8444L15.8679 44.234C14.6865 43.5226 13.3351 43.1431 11.9561 43.1355C10.4233 43.1355 8.92487 43.59 7.65039 44.4416C6.37591 45.2932 5.38257 46.5036 4.79599 47.9197C4.20941 49.3358 4.05594 50.8941 4.35497 52.3974C4.65401 53.9008 5.39212 55.2817 6.47598 56.3656C7.55984 57.4494 8.94076 58.1875 10.4441 58.4866C11.9475 58.7856 13.5057 58.6321 14.9219 58.0456C16.338 57.459 17.5484 56.4656 18.3999 55.1912C19.2515 53.9167 19.7061 52.4183 19.7061 50.8855C19.6989 49.5058 19.3193 48.1536 18.6075 46.9717L25.9971 39.584C27.0275 40.2708 28.1807 40.7524 29.3936 41.0023V47.367C28.1008 47.824 27.0113 48.7234 26.3175 49.906C25.6237 51.0887 25.3704 52.4786 25.6023 53.83C25.8341 55.1814 26.5363 56.4073 27.5846 57.2911C28.6329 58.1748 29.9599 58.6596 31.3311 58.6596C32.7022 58.6596 34.0292 58.1748 35.0775 57.2911C36.1258 56.4073 36.828 55.1814 37.0598 53.83C37.2917 52.4786 37.0384 51.0887 36.3446 49.906C35.6508 48.7234 34.5613 47.824 33.2686 47.367V41.0023C34.4814 40.7524 35.6346 40.2708 36.665 39.584L44.0546 46.9737C43.3431 48.155 42.9636 49.5065 42.9561 50.8855C42.9561 52.4183 43.4106 53.9167 44.2622 55.1912C45.1138 56.4656 46.3241 57.459 47.7403 58.0456C49.1564 58.6321 50.7147 58.7856 52.218 58.4866C53.7214 58.1875 55.1023 57.4494 56.1861 56.3656C57.27 55.2817 58.0081 53.9008 58.3071 52.3974C58.6062 50.8941 58.4527 49.3358 57.8661 47.9197C57.2795 46.5036 56.2862 45.2932 55.0117 44.4416C53.7372 43.59 52.2389 43.1355 50.7061 43.1355ZM31.3311 25.698C32.4807 25.698 33.6044 26.0389 34.5603 26.6776C35.5162 27.3163 36.2612 28.224 36.7011 29.2861C37.141 30.3482 37.2561 31.5169 37.0319 32.6445C36.8076 33.772 36.254 34.8077 35.4411 35.6205C34.6282 36.4334 33.5925 36.987 32.465 37.2113C31.3375 37.4356 30.1688 37.3205 29.1067 36.8805C28.0446 36.4406 27.1368 35.6956 26.4981 34.7397C25.8595 33.7839 25.5186 32.6601 25.5186 31.5105C25.5201 29.9694 26.133 28.4918 27.2227 27.4021C28.3124 26.3124 29.79 25.6995 31.3311 25.698ZM8.08106 12.1355C8.08106 11.3691 8.30832 10.6199 8.73411 9.98266C9.1599 9.34541 9.7651 8.84875 10.4732 8.55546C11.1812 8.26217 11.9604 8.18543 12.712 8.33495C13.4637 8.48446 14.1542 8.85352 14.6961 9.39545C15.238 9.93738 15.6071 10.6278 15.7566 11.3795C15.9061 12.1312 15.8294 12.9103 15.5361 13.6184C15.2428 14.3265 14.7461 14.9316 14.1089 15.3574C13.4717 15.7832 12.7225 16.0105 11.9561 16.0105C10.9287 16.0095 9.94363 15.6009 9.21715 14.8744C8.49067 14.1479 8.08208 13.1629 8.08106 12.1355ZM11.9561 54.7605C11.1897 54.7605 10.4405 54.5332 9.80322 54.1074C9.16598 53.6816 8.66931 53.0764 8.37602 52.3684C8.08273 51.6603 8.006 50.8812 8.15551 50.1295C8.30503 49.3778 8.67409 48.6874 9.21602 48.1454C9.75795 47.6035 10.4484 47.2345 11.2001 47.0849C11.9518 46.9354 12.7309 47.0122 13.439 47.3055C14.147 47.5987 14.7522 48.0954 15.178 48.7326C15.6038 49.3699 15.8311 50.1191 15.8311 50.8855C15.83 51.9129 15.4214 52.8979 14.695 53.6244C13.9685 54.3509 12.9835 54.7595 11.9561 54.7605ZM50.7061 54.7605C49.9397 54.7605 49.1905 54.5332 48.5532 54.1074C47.916 53.6816 47.4193 53.0764 47.126 52.3684C46.8327 51.6603 46.756 50.8812 46.9055 50.1295C47.055 49.3778 47.4241 48.6874 47.966 48.1454C48.5079 47.6035 49.1984 47.2345 49.9501 47.0849C50.7018 46.9354 51.4809 47.0122 52.189 47.3055C52.897 47.5987 53.5022 48.0954 53.928 48.7326C54.3538 49.3699 54.5811 50.1191 54.5811 50.8855C54.5795 51.9127 54.1708 52.8975 53.4444 53.6238C52.718 54.3502 51.7333 54.7589 50.7061 54.7605Z" fill="white"/>
<ellipse cx="31.2598" cy="52.8667" rx="5.72926" ry="5.7923" fill="#2AA0FF"/>
<ellipse cx="46.8643" cy="15.8907" rx="5.72926" ry="5.7923" fill="#2AA0FF"/>
<path d="M17.571 45.3021L24.0605 38.8127" stroke="#2AA0FF" stroke-width="4" stroke-linejoin="round"/>
<path d="M45.2239 45.5732L38.2937 38.643" stroke="#2AA0FF" stroke-width="4" stroke-linejoin="round"/>
</svg>
