<svg width="62" height="62" viewBox="0 0 62 62" fill="none" xmlns="http://www.w3.org/2000/svg">
<path d="M19.9242 34.5713C20.5111 34.7141 21.1121 34.7908 21.7161 34.8C23.2303 34.7997 24.7102 34.3484 25.967 33.5038L32.1051 38.9747C31.6189 39.8981 31.3335 40.9139 31.2678 41.9553C31.2021 42.9968 31.3575 44.0404 31.7239 45.0176C32.1087 46.1247 32.7435 47.1282 33.5791 47.9502C34.4147 48.7721 35.4286 49.3904 36.5419 49.7569C37.6552 50.1234 38.8381 50.2283 39.9985 50.0635C41.159 49.8987 42.2658 49.4686 43.233 48.8065C44.2003 48.1445 45.0019 47.2684 45.5755 46.2463C46.1492 45.2242 46.4795 44.0835 46.5408 42.913C46.6021 41.7425 46.3927 40.5737 45.929 39.4972C45.4652 38.4208 44.7595 37.4657 43.8667 36.7063L48.7086 27.0035C49.6536 27.2166 50.632 27.237 51.5851 27.0634C52.5382 26.8898 53.4465 26.5258 54.2558 25.9932C55.63 25.1545 56.7035 23.9024 57.3225 22.4162C57.9415 20.93 58.0742 19.2861 57.7016 17.7198C57.329 16.1536 56.4702 14.7455 55.2483 13.6973C54.0264 12.649 52.5041 12.0144 50.8994 11.8844C49.2947 11.7544 47.6901 12.1356 46.3153 12.9735C44.9406 13.8113 43.8664 15.0628 43.2465 16.5486C42.6266 18.0344 42.4929 19.6783 42.8646 21.2448C43.2362 22.8112 44.0942 24.2198 45.3154 25.2688L40.4736 34.9716C39.9477 34.856 39.4107 34.7985 38.8723 34.8C37.3581 34.8004 35.8782 35.2517 34.6214 36.0963L28.4833 30.6254C28.9695 29.702 29.2549 28.6862 29.3206 27.6448C29.3863 26.6033 29.2308 25.5597 28.8645 24.5826C28.4825 23.4835 27.8541 22.4863 27.0273 21.6676C26.2006 20.8489 25.1974 20.2302 24.0946 19.859C22.9918 19.4878 21.8187 19.3739 20.6652 19.526C19.5116 19.6781 18.4081 20.0922 17.4393 20.7366C16.4704 21.381 15.6619 22.2386 15.0756 23.2437C14.4894 24.2487 14.1409 25.3747 14.0569 26.5352C13.9729 27.6958 14.1557 28.8601 14.5911 29.9391C15.0266 31.0182 15.7032 31.9832 16.5692 32.7604L8.37231 48.1438V4.30005H4.55981V53.8625C4.55981 54.8737 4.96149 55.8434 5.67647 56.5584C6.39145 57.2734 7.36118 57.675 8.37231 57.675H57.9348V53.8625H9.6495L19.9242 34.5713ZM50.3098 15.7375C51.0639 15.7375 51.801 15.9611 52.4279 16.3801C53.0549 16.799 53.5435 17.3944 53.8321 18.0911C54.1207 18.7877 54.1962 19.5543 54.0491 20.2938C53.902 21.0334 53.5388 21.7127 53.0057 22.2459C52.4725 22.7791 51.7931 23.1422 51.0536 23.2893C50.314 23.4364 49.5475 23.3609 48.8508 23.0723C48.1542 22.7838 47.5588 22.2951 47.1398 21.6682C46.7209 21.0412 46.4973 20.3041 46.4973 19.55C46.4973 18.5389 46.899 17.5692 47.614 16.8542C48.329 16.1392 49.2987 15.7375 50.3098 15.7375ZM42.6848 42.425C42.6848 43.1791 42.4612 43.9162 42.0423 44.5432C41.6234 45.1701 41.0279 45.6588 40.3313 45.9473C39.6347 46.2359 38.8681 46.3114 38.1285 46.1643C37.389 46.0172 36.7097 45.6541 36.1765 45.1209C35.6433 44.5877 35.2802 43.9084 35.1331 43.1688C34.986 42.4293 35.0615 41.6627 35.35 40.9661C35.6386 40.2694 36.1272 39.674 36.7542 39.2551C37.3812 38.8361 38.1183 38.6125 38.8723 38.6125C39.8835 38.6125 40.8532 39.0142 41.5682 39.7292C42.2831 40.4442 42.6848 41.4139 42.6848 42.425ZM21.7161 23.3625C22.4701 23.3625 23.2072 23.5861 23.8342 24.0051C24.4611 24.424 24.9498 25.0194 25.2384 25.7161C25.5269 26.4127 25.6024 27.1793 25.4553 27.9188C25.3082 28.6584 24.9451 29.3377 24.4119 29.8709C23.8787 30.4041 23.1994 30.7672 22.4598 30.9143C21.7203 31.0614 20.9537 30.9859 20.2571 30.6973C19.5604 30.4088 18.965 29.9201 18.5461 29.2932C18.1272 28.6662 17.9036 27.9291 17.9036 27.175C17.9036 26.1639 18.3052 25.1942 19.0202 24.4792C19.7352 23.7642 20.7049 23.3625 21.7161 23.3625Z" fill="white"/>
<path d="M9.34424 50.4158L18.2219 33.6302" stroke="#2AA0FF" stroke-width="4" stroke-linejoin="round"/>
<path d="M33.3662 37.5095L27.0999 31.989" stroke="#2AA0FF" stroke-width="4" stroke-linejoin="round"/>
<path d="M42.2068 35.9056L47.0185 26.0955" stroke="#2AA0FF" stroke-width="4" stroke-linejoin="round"/>
</svg>
