<svg width="31" height="31" viewBox="0 0 31 31" fill="none" xmlns="http://www.w3.org/2000/svg">
<g clip-path="url(#clip0_727_1187)">
<path d="M28.9655 0.367188H1.36553C0.701777 0.367188 0.165527 0.903437 0.165527 1.56719V29.1672C0.165527 29.8309 0.701777 30.3672 1.36553 30.3672H28.9655C29.6293 30.3672 30.1655 29.8309 30.1655 29.1672V1.56719C30.1655 0.903437 29.6293 0.367188 28.9655 0.367188ZM25.5005 9.12344H23.1043C21.2255 9.12344 20.8618 10.0159 20.8618 11.3284V14.2197H25.3468L24.7618 18.7459H20.8618V30.3672H16.1855V18.7497H12.2743V14.2197H16.1855V10.8822C16.1855 7.00844 18.5518 4.89719 22.0093 4.89719C23.6668 4.89719 25.088 5.02094 25.5043 5.07719V9.12344H25.5005Z" fill="#2AA0FF"/>
</g>
<defs>
<clipPath id="clip0_727_1187">
<rect width="30" height="30" fill="white" transform="translate(0.165527 0.367188)"/>
</clipPath>
</defs>
</svg>
