<svg width="44" height="31" viewBox="0 0 44 31" fill="none" xmlns="http://www.w3.org/2000/svg">
<path d="M0.333374 2.73937C0.333374 1.57062 1.29971 0.625 2.48921 0.625H19.8442C20.416 0.625 20.9643 0.847763 21.3686 1.24429C21.7729 1.64081 22 2.17861 22 2.73937C22 3.30014 21.7729 3.83794 21.3686 4.23446C20.9643 4.63099 20.416 4.85375 19.8442 4.85375H2.48921C1.91744 4.85375 1.3691 4.63099 0.964803 4.23446C0.560506 3.83794 0.333374 3.30014 0.333374 2.73937Z" fill="black"/>
<path d="M0.333374 15.5C0.333374 14.3312 1.29971 13.3856 2.48921 13.3856H41.5109C42.0826 13.3856 42.631 13.6084 43.0353 14.0049C43.4396 14.4014 43.6667 14.9392 43.6667 15.5C43.6667 16.0608 43.4396 16.5986 43.0353 16.9951C42.631 17.3916 42.0826 17.6144 41.5109 17.6144H2.48921C1.91744 17.6144 1.3691 17.3916 0.964803 16.9951C0.560506 16.5986 0.333374 16.0608 0.333374 15.5Z" fill="black"/>
<path d="M2.48921 26.1462C1.91744 26.1462 1.3691 26.369 0.964803 26.7655C0.560506 27.162 0.333374 27.6998 0.333374 28.2606C0.333374 28.8214 0.560506 29.3592 0.964803 29.7557C1.3691 30.1522 1.91744 30.375 2.48921 30.375H28.5109C29.0826 30.375 29.631 30.1522 30.0353 29.7557C30.4396 29.3592 30.6667 28.8214 30.6667 28.2606C30.6667 27.6998 30.4396 27.162 30.0353 26.7655C29.631 26.369 29.0826 26.1462 28.5109 26.1462H2.48921Z" fill="black"/>
</svg>
