<svg width="1398" height="780" viewBox="0 0 1398 780" fill="none" xmlns="http://www.w3.org/2000/svg">
<mask id="mask0_727_1192" style="mask-type:alpha" maskUnits="userSpaceOnUse" x="778" y="111" width="620" height="614">
<path d="M778.572 111.077H1397.26V724.065H778.572V111.077Z" fill="#C4C4C4"/>
</mask>
<g mask="url(#mask0_727_1192)">
<g opacity="0.39">
<path opacity="0.39" d="M1691.79 86.8261L1500.25 1037.35L1497.9 1049.02L1495.6 1037.34L1389.08 496.139L1388.92 495.384L1389.36 494.781L1691.79 86.8261ZM1691.79 86.8261L1391.99 496.814L1392.27 495.456L1500.24 1036.36L1495.59 1036.35L1691.79 86.8261Z" fill="#2AA0FF"/>
<path opacity="0.39" d="M963.991 650.186L1499.16 1035.07L1495.88 1037.29L1468.81 902.073L1442.12 766.77L1389.03 496.133L1391.28 497.453L963.991 650.186ZM963.991 650.186L1390.11 494.147L1391.97 493.473L1392.36 495.467L1446.52 765.846L1473.45 901.086L1500 1036.42L1501.05 1041.79L1496.71 1038.6L963.991 650.186Z" fill="#2AA0FF"/>
<path opacity="0.39" d="M1368.01 705.37L2173.89 1481.62L2170.39 1484.4L2042.24 1240.48L1914.47 996.351L1658.95 508.075L1660.76 508.531L1368.01 705.37ZM1368.01 705.37L1659.38 506.356L1660.54 505.565L1661.19 506.812L1917.94 994.403L2046.31 1238.18L2174.31 1482.18L2180.91 1494.76L2170.8 1484.95L1368.01 705.37Z" fill="#2AA0FF"/>
<path opacity="0.39" d="M1497.92 1036.85L1229.65 844.301L962.694 652.049L965.747 648.883C997.965 694.881 1030.36 740.784 1062.34 786.964L1158.53 925.369L1350.91 1202.18L1348.94 1202.06L1497.92 1036.85ZM1497.92 1036.85L1350.82 1203.8L1349.76 1205.01L1348.85 1203.68L1155.33 927.733L1058.56 789.747C1026.19 743.824 994.306 697.563 962.19 651.484L954.552 640.514L965.242 648.318L1232.25 842.708L1497.92 1036.85Z" fill="#2AA0FF"/>
<path opacity="0.39" d="M799.976 1889.54L961.725 649.882L962.485 644.088L965.798 648.842L1158.74 925.207L1351.37 1201.82L1352.18 1203.01L1351.28 1204.15L799.976 1889.54ZM799.976 1889.54L1348.45 1201.73L1348.39 1204.04L1155.1 927.915L962.133 651.571L966.205 650.531L799.976 1889.54Z" fill="#2AA0FF"/>
<path opacity="0.39" d="M1390.69 495.788L1540.38 290.398L1690.45 85.7937L1692.81 88.2417L1329.35 370.514L964.95 651.523L963.45 648.646L1176.78 571.941L1390.69 495.788ZM1390.69 495.788L1177.9 574.033L964.533 651.727L954.725 655.288L963.032 648.85L1326.45 366.525L1690.79 85.4376L1700.45 77.9732L1693.14 87.8594L1542.1 292.216L1390.69 495.788Z" fill="#2AA0FF"/>
<path opacity="0.39" d="M154.658 1531.16L1190.92 606.633L1192.12 605.562L1193.51 606.342L1369.16 703.204L1372.69 705.146L1369.34 707.419L154.658 1531.16ZM154.658 1531.16L1366.7 703.3L1366.88 707.515L1191.35 610.48L1193.95 610.189L154.658 1531.16Z" fill="#2AA0FF"/>
<path opacity="0.39" d="M1715.63 613.236L1480.59 1185.7L1480.25 1186.56L1479.36 1186.68L695.369 1289.94L685.011 1291.3L693.811 1285.52L1715.63 613.236ZM1715.63 613.236L696.34 1289.55L694.783 1285.12L1478.96 1183.43L1477.73 1184.4L1715.63 613.236Z" fill="#2AA0FF"/>
<path opacity="0.39" d="M2207.39 1013.16L2069.36 457.186L1932.06 -98.9926L1935.95 -99.2995L1877.68 550.625L1818.47 1200.45L1816.21 1198.84L2195.75 1008.66L2195.3 1009.14L2312.24 718.378L2197.04 1009.9L2196.89 1010.23L2196.57 1010.4L1817.59 1201.77L1815.08 1203.05L1815.33 1200.17L1873.19 550.189L1932.01 -99.6626L1933.1 -111.544L1935.92 -99.9899L2072.05 456.482L2207.39 1013.16Z" fill="#2AA0FF"/>
<path opacity="0.39" d="M1281.34 88.7902L1133.12 1132.5L1131.13 1130.39L1663.49 1068.5L2195.93 1007.43L2194.71 1011.03L1281.34 88.7902ZM1281.34 88.7902L2197.63 1008.01L2200.74 1011.13L2196.41 1011.61L1664.02 1073.23L1131.54 1134.04L1129.2 1134.3L1129.55 1131.93L1281.34 88.7902Z" fill="#2AA0FF"/>
<path opacity="0.39" d="M1131.36 1132.22L1044.81 1053.59C1015.9 1027.43 987.141 1001.15 958.447 974.728L786.071 816.648L784.791 815.482L785.782 814.028L908.885 632.157L1032.84 450.874L1156.79 269.59C1198.02 209.112 1239.87 149.071 1281.39 88.7958C1240.57 149.567 1200.09 210.62 1159 271.189L1035.94 453.113L912.874 635.037L788.989 816.353L788.68 813.707L960.298 972.68C988.94 999.137 1017.48 1025.68 1045.93 1052.37L1131.36 1132.22Z" fill="#2AA0FF"/>
</g>
</g>
<g opacity="0.39">
<path opacity="0.39" d="M299.656 195.737L-13.927 410.854L-17.7775 413.492L-15.2755 409.554L100.686 226.948L100.845 226.691L101.138 226.645L299.656 195.737ZM299.656 195.737L101.348 227.951L101.8 227.647L-13.6601 410.57L-15.0085 409.269L299.656 195.737Z" stroke="black" stroke-width="4"/>
<path opacity="0.39" d="M-64.5266 151.917L-13.6257 409.906L-15.1773 409.617L13.6603 363.867L42.633 318.197L100.675 226.934L100.97 227.935L-64.5266 151.917ZM-64.5266 151.917L101.528 226.675L102.251 227.003L101.823 227.676L44.1622 319.164L15.2757 364.883L-13.7459 410.521L-14.9008 412.33L-15.296 410.219L-64.5266 151.917Z" stroke="black" stroke-width="4"/>
<path opacity="0.39" d="M37.7825 280.182L61.0543 724.239L59.283 724.043L88.2831 619.396L117.449 514.792L175.792 305.586L176.194 306.219L37.7825 280.182ZM37.7825 280.182L176.382 305.22L176.934 305.32L176.784 305.853L118.986 515.21L90.0876 619.882L61.0243 724.51L59.5261 729.907L59.253 724.315L37.7825 280.182Z" stroke="black" stroke-width="4"/>
<path opacity="0.39" d="M-14.4678 410.062L-40.0901 280.845L-65.409 152.081L-63.6637 152.038C-66.7948 174.018 -69.8498 196.02 -73.0973 217.988L-82.7377 283.915L-102.018 415.769L-102.556 415.186L-14.4678 410.062ZM-14.4678 410.062L-102.485 416.201L-103.118 416.249L-103.023 415.619L-84.3093 283.689L-74.9519 217.718C-71.884 195.717 -68.5848 173.755 -65.402 151.781L-64.642 146.551L-63.6568 151.738L-38.9034 281.12L-14.4678 410.062Z" stroke="black" stroke-width="4"/>
<path opacity="0.39" d="M-14.4678 410.061L-35.1955 611.272L-35.9216 610.498L80.9792 605.293L139.43 602.75L197.889 600.364L197.359 601.85L-14.4678 410.061ZM-14.4678 410.061L198.491 600.601L200.052 601.99L197.961 602.087L139.517 604.683L81.0655 607.122L-35.853 611.893L-36.6674 611.921L-36.579 611.119L-14.4678 410.061Z" stroke="black" stroke-width="4"/>
<path opacity="0.39" d="M-102.507 415.688L24.878 702.333L26.6495 706.323L23.4438 703.352L-29.7031 654.016L-82.7166 604.538L-188.757 505.581L-189.172 505.195L-188.787 504.792C-174.416 489.823 -159.974 474.927 -145.555 460.12L-102.507 415.688ZM-102.507 415.688L-187.982 505.562L-188 504.774L-81.6029 603.34L-28.3971 652.616L24.6752 702.035L23.241 703.055L-102.507 415.688Z" stroke="black" stroke-width="4"/>
<path opacity="0.39" d="M101.249 227.299L200.448 211.02L299.545 195.071L299.566 196.421L117.443 174.802L-64.6118 152.562L-64.2666 151.331L18.4824 189.157L101.249 227.299ZM101.249 227.299L18.2388 190.059L-64.7885 152.503L-68.6023 150.774L-64.4433 151.272L117.683 172.865L299.742 195.066L304.572 195.651L299.765 196.404L200.456 212.016L101.249 227.299Z" stroke="black" stroke-width="4"/>
<path opacity="0.39" d="M-538.579 175.086L13.1721 202.9L13.8099 202.932L14.0043 203.542L38.7052 279.892L39.2034 281.425L37.613 281.132L-538.579 175.086ZM-538.579 175.086L37.9663 279.234L36.8742 280.475L12.2538 204.108L13.086 204.749L-538.579 175.086Z" stroke="black" stroke-width="4"/>
<path opacity="0.39" d="M163.705 351.103L-59.9006 447.281L-60.2308 447.428L-60.5212 447.213L-316.142 257.738L-319.517 255.233L-315.394 256.054L163.705 351.103ZM163.705 351.103L-315.754 257.899L-315.006 256.215L-59.7535 446.185L-60.3741 446.116L163.705 351.103Z" stroke="black" stroke-width="4"/>
<path opacity="0.39" d="M197.924 601.233L308.745 405.667L419.838 210.25L421.05 211.247L227.74 378.607L34.1874 545.679L33.9667 544.595L195.765 596.715L195.503 596.725L308.367 547.196L195.805 597.426L195.668 597.477L195.529 597.435L33.5712 545.808L32.4965 545.467L33.3505 544.723L226.557 377.234L420.005 210.045L423.548 206.994L421.229 211.044L309.718 406.219L197.924 601.233Z" stroke="black" stroke-width="4"/>
<path opacity="0.39" d="M308.368 547.196L242.009 426.861L175.676 306.057L174.858 304.567L176.496 305.022L362.038 356.987L547.43 409.485L549.066 409.953L547.586 410.798L427.863 479.2L308.368 547.196ZM308.368 547.196L427.74 478.179L546.871 409.567L547.027 410.88L361.487 358.902L176.095 306.405L176.916 305.37L242.649 426.042L308.368 547.196Z" stroke="black" stroke-width="4"/>
<path opacity="0.39" d="M179.967 81.821L-146.332 335.345L-146.335 334.193L25.0073 465.179L196.152 596.418L194.821 597.095L179.967 81.821ZM179.967 81.821L196.487 597.056L196.543 598.803L195.156 597.734L23.8751 466.664L-147.208 335.34L-147.955 334.76L-147.212 334.188L179.967 81.821Z" stroke="black" stroke-width="4"/>
<path opacity="0.39" d="M-146.766 334.774L-150.553 288.422C-151.845 272.968 -153.06 257.523 -154.22 242.058L-161.357 149.324L-161.412 148.637L-160.73 148.503L-75.6319 131.455L9.5528 114.808L94.7375 98.1617C123.123 92.577 151.568 87.2867 179.978 81.8356C151.636 87.6214 123.314 93.5795 94.9466 99.2317L9.84565 116.306L-75.2554 133.381L-160.43 150.054L-159.801 149.221L-153.127 241.995C-151.992 257.458 -150.91 272.915 -149.895 288.39L-146.766 334.774Z" stroke="black" stroke-width="4"/>
</g>
</svg>
