<svg width="25" height="26" viewBox="0 0 25 26" fill="none" xmlns="http://www.w3.org/2000/svg">
<path fill-rule="evenodd" clip-rule="evenodd" d="M3.09159e-07 2.12697C3.09159e-07 1.57303 0.220052 1.04178 0.611748 0.65008C1.00344 0.258385 1.5347 0.0383329 2.08864 0.0383329H22.9091C23.1836 0.0378845 23.4555 0.0915862 23.7092 0.196363C23.963 0.30114 24.1936 0.454935 24.3878 0.648942C24.582 0.842949 24.736 1.07336 24.8411 1.32698C24.9461 1.5806 25.0001 1.85245 25 2.12697V22.9474C25.0003 23.222 24.9465 23.4939 24.8416 23.7477C24.7367 24.0014 24.5828 24.232 24.3887 24.4262C24.1946 24.6204 23.9641 24.7744 23.7104 24.8795C23.4567 24.9845 23.1848 25.0385 22.9102 25.0383H2.08864C1.81426 25.0383 1.54257 24.9843 1.28909 24.8792C1.03561 24.7742 0.805308 24.6202 0.611346 24.4262C0.417383 24.2321 0.263559 24.0017 0.158662 23.7482C0.0537651 23.4947 -0.000148972 23.2229 3.09159e-07 22.9486V2.12697ZM9.89545 9.57015H13.2807V11.2702C13.7693 10.2929 15.0193 9.41333 16.8977 9.41333C20.4989 9.41333 21.3523 11.3599 21.3523 14.9315V21.5474H17.708V15.7451C17.708 13.7111 17.2193 12.5633 15.9784 12.5633C14.2568 12.5633 13.5409 13.8008 13.5409 15.7451V21.5474H9.89545V9.57015ZM3.64545 21.3917H7.29091V9.41333H3.64545V21.3906V21.3917ZM7.8125 5.50651C7.81937 5.81864 7.76383 6.129 7.64914 6.41937C7.53444 6.70974 7.3629 6.97428 7.14458 7.19746C6.92626 7.42064 6.66557 7.59796 6.37779 7.71902C6.09001 7.84008 5.78095 7.90244 5.46875 7.90244C5.15655 7.90244 4.84749 7.84008 4.55971 7.71902C4.27193 7.59796 4.01124 7.42064 3.79292 7.19746C3.5746 6.97428 3.40306 6.70974 3.28836 6.41937C3.17367 6.129 3.11813 5.81864 3.125 5.50651C3.13849 4.89385 3.39135 4.31082 3.82942 3.88229C4.26748 3.45377 4.85594 3.21381 5.46875 3.21381C6.08156 3.21381 6.67002 3.45377 7.10808 3.88229C7.54615 4.31082 7.79901 4.89385 7.8125 5.50651Z" fill="white"/>
</svg>
