<svg width="32" height="31" viewBox="0 0 32 31" fill="none" xmlns="http://www.w3.org/2000/svg">
<g clip-path="url(#clip0_727_1189)">
<path fill-rule="evenodd" clip-rule="evenodd" d="M0.165528 2.87355C0.165528 2.20883 0.438392 1.57132 0.924094 1.10129C1.4098 0.631253 2.06855 0.367191 2.75544 0.367191H28.5728C28.9132 0.366653 29.2504 0.431095 29.565 0.556827C29.8796 0.68256 30.1655 0.867113 30.4064 1.09992C30.6472 1.33273 30.8382 1.60922 30.9685 1.91357C31.0988 2.21791 31.1657 2.54413 31.1655 2.87355V27.8581C31.1659 28.1876 31.0991 28.5139 30.9691 28.8184C30.839 29.1229 30.6481 29.3996 30.4075 29.6326C30.1668 29.8657 29.881 30.0505 29.5664 30.1765C29.2518 30.3026 28.9147 30.3674 28.5742 30.3672H2.75544C2.41521 30.3672 2.07831 30.3023 1.764 30.1763C1.44968 30.0502 1.16411 29.8655 0.923596 29.6326C0.683082 29.3997 0.49234 29.1233 0.362268 28.819C0.232196 28.5148 0.165343 28.1887 0.165528 27.8595V2.87355ZM12.4359 11.8054H16.6336V13.8454C17.2395 12.6726 18.7895 11.6172 21.1187 11.6172C25.5841 11.6172 26.6423 13.9531 26.6423 18.239V26.1781H22.1234V19.2154C22.1234 16.7745 21.5175 15.3972 19.9788 15.3972C17.844 15.3972 16.9563 16.8822 16.9563 19.2154V26.1781H12.4359V11.8054ZM4.68589 25.9913H9.20625V11.6172H4.68589V25.9899V25.9913ZM9.85303 6.92901C9.86155 7.30356 9.79268 7.67599 9.65046 8.02444C9.50823 8.37288 9.29552 8.69033 9.02481 8.95814C8.75409 9.22596 8.43083 9.43874 8.07399 9.58402C7.71714 9.72929 7.33391 9.80412 6.94678 9.80412C6.55964 9.80412 6.17641 9.72929 5.81957 9.58402C5.46273 9.43874 5.13946 9.22596 4.86875 8.95814C4.59803 8.69033 4.38532 8.37288 4.2431 8.02444C4.10088 7.67599 4.032 7.30356 4.04053 6.92901C4.05726 6.19381 4.3708 5.49418 4.914 4.97994C5.45721 4.46571 6.18689 4.17776 6.94678 4.17776C7.70667 4.17776 8.43635 4.46571 8.97955 4.97994C9.52276 5.49418 9.8363 6.19381 9.85303 6.92901Z" fill="#2AA0FF"/>
</g>
<defs>
<clipPath id="clip0_727_1189">
<rect width="31" height="30" fill="white" transform="translate(0.165527 0.367188)"/>
</clipPath>
</defs>
</svg>
