<svg width="357" height="570" viewBox="0 0 357 570" fill="none" xmlns="http://www.w3.org/2000/svg">
<mask id="mask0_647_1023" style="mask-type:alpha" maskUnits="userSpaceOnUse" x="0" y="0" width="547" height="570">
<path d="M0 0H546.145V570H0V0Z" fill="#C4C4C4"/>
</mask>
<g mask="url(#mask0_647_1023)">
<g opacity="0.39">
<path opacity="0.39" d="M795.842 -30.1789L647.107 694.839L645.275 703.736L643.005 694.743L537.649 277.803L537.494 277.221L537.874 276.767L795.842 -30.1789ZM795.842 -30.1789L540.228 278.376L540.453 277.34L647.076 694.076L642.973 693.979L795.842 -30.1789Z" fill="#2AA0FF"/>
<path opacity="0.39" d="M163.678 392.727L640.437 696.116L637.614 697.738L611.062 594.223L584.841 490.646L532.663 283.475L534.663 284.524L163.678 392.727ZM163.678 392.727L533.569 281.983L535.184 281.505L535.569 283.032L588.677 490.026L615.106 593.56L641.204 697.156L642.232 701.269L638.363 698.758L163.678 392.727Z" fill="#2AA0FF"/>
<path opacity="0.39" d="M634.687 698.37L397.826 547.701L162.119 397.281L164.702 394.945C193.624 430.336 222.695 465.658 251.421 501.182L337.79 607.655L510.529 820.603L508.82 820.473L634.687 698.37ZM634.687 698.37L510.484 821.827L509.596 822.721L508.775 821.698L335.059 609.382L248.192 503.214C219.143 467.877 190.505 432.294 161.67 396.844L154.812 388.405L164.253 394.508L400.049 546.546L634.687 698.37Z" fill="#2AA0FF"/>
<path opacity="0.39" d="M32.2719 1344.85L148.425 399.295L148.971 394.875L151.987 398.577L327.606 613.759L502.96 829.122L503.703 830.055L502.931 830.905L32.2719 1344.85ZM32.2719 1344.85L500.393 829.002L500.386 830.77L324.461 615.762L148.819 400.595L152.381 399.877L32.2719 1344.85Z" fill="#2AA0FF"/>
<path opacity="0.39" d="M500.826 827.757L30.8853 1345.86L29.5254 1347.34L28.1202 1345.77L-139.132 1156.59L-305.895 967.089L-307.763 964.946L-304.89 964.472L500.826 827.757ZM500.826 827.757L-303.992 967.732L-302.987 965.116L-135.801 1154.34L30.8957 1343.89L28.1526 1343.78L500.826 827.757Z" fill="#2AA0FF"/>
<path opacity="0.39" d="M542.22 283.557L671.766 126.081L801.672 -30.7741L803.839 -28.8161L484.64 184.526L164.568 396.863L163.163 394.587L352.428 338.851L542.22 283.557ZM542.22 283.557L353.472 340.506L164.198 397.014L155.498 399.604L162.794 394.738L481.956 181.354L801.973 -31.0454L810.457 -36.6861L804.121 -29.1084L673.351 127.535L542.22 283.557Z" fill="#2AA0FF"/>
<path opacity="0.39" d="M-548.684 1068.6L359.539 366.007L360.587 365.193L361.857 365.83L521.248 444.999L524.453 446.587L521.498 448.298L-548.684 1068.6ZM-548.684 1068.6L519.051 445.027L519.302 448.325L360.009 369.023L362.327 368.846L-548.684 1068.6Z" fill="#2AA0FF"/>
<path opacity="0.39" d="M820.585 373.681L623.536 813.095L623.252 813.751L622.462 813.825L-73.3967 878.699L-82.5897 879.55L-74.8779 875.238L820.585 373.681ZM820.585 373.681L-72.5402 878.415L-74.0214 874.954L622.042 811.297L620.968 812.027L820.585 373.681Z" fill="#2AA0FF"/>
<path opacity="0.39" d="M430.298 -31.4869L322.359 761.24L320.571 759.591L785.799 722.569L1251.12 686.17L1250.12 688.892L430.298 -31.4869ZM430.298 -31.4869L1252.62 686.647L1255.41 689.081L1251.63 689.369L786.361 726.188L321.008 762.384L318.966 762.534L319.22 760.735L430.298 -31.4869Z" fill="#2AA0FF"/>
<path opacity="0.39" d="M321.934 768.311L243.977 706.377C217.939 685.768 192.035 665.068 166.183 644.267L10.891 519.781L9.73779 518.862L10.5808 517.767L115.246 380.709L220.671 244.118L326.096 107.527C361.167 61.9566 396.788 16.7334 432.106 -28.6763C397.413 17.1271 363.021 63.1527 328.083 108.796L223.453 245.894L118.823 382.993L13.4568 519.611L13.1286 517.576L167.77 642.733C193.578 663.563 219.297 684.455 244.941 705.462L321.934 768.311Z" fill="#2AA0FF"/>
</g>
</g>
</svg>
