<svg width="57" height="58" viewBox="0 0 57 58" fill="none" xmlns="http://www.w3.org/2000/svg">
<path d="M31.1828 5.44518C25.1871 0.870433 16.5979 4.88331 16.0991 12.4922L15.8498 16.3129H13.3596C12.6509 16.3129 11.9713 16.5994 11.4703 17.1092C10.9692 17.6191 10.6877 18.3106 10.6877 19.0317C10.6877 19.7527 10.9692 20.4443 11.4703 20.9541C11.9713 21.464 12.6509 21.7504 13.3596 21.7504H15.4899L13.9937 44.5662C13.9474 45.2671 13.7415 45.9475 13.3924 46.5535C13.0433 47.1596 12.5604 47.6748 11.982 48.0583C11.4036 48.4419 10.7455 48.6834 10.0597 48.7637C9.37379 48.844 8.67897 48.7609 8.03007 48.5211L7.15013 48.1948C6.82031 48.0727 6.47008 48.0179 6.11944 48.0335C5.7688 48.0491 5.42462 48.1349 5.10655 48.2859C4.78847 48.4368 4.50274 48.6501 4.26566 48.9134C4.02857 49.1767 3.84479 49.485 3.72479 49.8206C3.60479 50.1562 3.55093 50.5126 3.56628 50.8694C3.58163 51.2262 3.6659 51.5764 3.81427 51.9001C3.96263 52.2237 4.1722 52.5145 4.43099 52.7557C4.68979 52.9969 4.99274 53.184 5.32257 53.3061L6.20607 53.6323C7.63417 54.1603 9.16339 54.343 10.6728 54.166C12.1823 53.9891 13.6306 53.4573 14.9033 52.6127C16.176 51.7681 17.2382 50.6339 18.0059 49.2996C18.7736 47.9654 19.2258 46.4677 19.3268 44.9251L20.8479 21.7504H25.8283C26.5369 21.7504 27.2165 21.464 27.7176 20.9541C28.2187 20.4443 28.5002 19.7527 28.5002 19.0317C28.5002 18.3106 28.2187 17.6191 27.7176 17.1092C27.2165 16.5994 26.5369 16.3129 25.8283 16.3129H21.2042L21.4286 12.8511C21.4778 12.1019 21.7248 11.3802 22.1437 10.7621C22.5626 10.144 23.1378 9.65248 23.8085 9.33947C24.4791 9.02646 25.2205 8.90358 25.9541 8.98379C26.6877 9.064 27.3865 9.34434 27.9765 9.79518L28.6783 10.3317C28.959 10.5459 29.2784 10.7018 29.6183 10.7904C29.9582 10.879 30.312 10.8986 30.6593 10.8481C31.0067 10.7976 31.3408 10.678 31.6427 10.4961C31.9447 10.3142 32.2084 10.0736 32.4189 9.78793C32.6295 9.50231 32.7826 9.17729 32.8697 8.83143C32.9568 8.48556 32.9761 8.12564 32.9265 7.77219C32.8768 7.41875 32.7593 7.07871 32.5805 6.7715C32.4018 6.46428 32.1653 6.1959 31.8846 5.98168L31.1828 5.44518ZM34.3284 27.7897C33.9056 27.0903 33.3326 26.4974 32.6525 26.0556C31.9723 25.6137 31.2026 25.3344 30.4012 25.2384C29.5997 25.1425 28.7874 25.2325 28.025 25.5017C27.2626 25.7709 26.5701 26.2123 25.9993 26.7928L24.8308 27.9854C24.3589 28.5008 24.1019 29.1825 24.1141 29.8868C24.1263 30.5912 24.4068 31.2632 24.8963 31.7613C25.3858 32.2594 26.0463 32.5448 26.7385 32.5572C27.4307 32.5696 28.1006 32.3082 28.6071 31.8279L29.7791 30.6389L34.0256 37.6606L25.7214 46.1068C25.4661 46.3575 25.2625 46.6574 25.1223 46.989C24.9821 47.3206 24.9082 47.6774 24.905 48.0384C24.9017 48.3993 24.9692 48.7574 25.1033 49.0916C25.2375 49.4258 25.4358 49.7294 25.6865 49.9848C25.9373 50.2402 26.2355 50.4422 26.5638 50.5791C26.8921 50.7159 27.2439 50.7849 27.5987 50.7819C27.9534 50.7789 28.3041 50.7041 28.6301 50.5618C28.9562 50.4195 29.2511 50.2125 29.4977 49.9529L36.9041 42.4202L40.4844 48.3362C40.9073 49.0356 41.4803 49.6284 42.1604 50.0703C42.8406 50.5121 43.6103 50.7915 44.4117 50.8874C45.2132 50.9834 46.0255 50.8933 46.7879 50.6241C47.5503 50.3549 48.2428 49.9135 48.8136 49.3331L49.9821 48.1404C50.2446 47.8915 50.4551 47.5914 50.6012 47.2579C50.7472 46.9244 50.8257 46.5644 50.8321 46.1993C50.8384 45.8343 50.7724 45.4717 50.638 45.1331C50.5036 44.7946 50.3036 44.4871 50.0499 44.2289C49.7962 43.9708 49.494 43.7672 49.1613 43.6305C48.8286 43.4938 48.4722 43.4266 48.1135 43.433C47.7547 43.4395 47.4009 43.5194 47.0732 43.668C46.7454 43.8166 46.4504 44.0308 46.2058 44.2979L45.0338 45.4869L40.7873 38.4653L49.0914 30.0191C49.5784 29.5065 49.848 28.8199 49.8423 28.107C49.8365 27.3942 49.5558 26.7122 49.0607 26.2078C48.5655 25.7035 47.8955 25.4173 47.195 25.4107C46.4944 25.4042 45.8193 25.6779 45.3152 26.1729L37.9052 33.7057L34.3284 27.7897Z" fill="white"/>
<path d="M34.328 27.6221C33.9052 26.9228 33.3322 26.3299 32.652 25.888C31.9719 25.4462 31.2022 25.1668 30.4007 25.0709C29.5993 24.975 28.7869 25.065 28.0246 25.3342C27.2622 25.6034 26.5696 26.0448 25.9989 26.6253L24.8304 27.8179C24.3584 28.3333 24.1015 29.0149 24.1137 29.7193C24.1259 30.4236 24.4063 31.0956 24.8959 31.5938C25.3854 32.0919 26.0458 32.3772 26.738 32.3897C27.4302 32.4021 28.1001 32.1406 28.6066 31.6604L29.7787 30.4714L34.0252 37.493L25.721 45.9393C25.4657 46.1899 25.262 46.4898 25.1218 46.8215C24.9817 47.1531 24.9078 47.5098 24.9045 47.8708C24.9013 48.2318 24.9687 48.5898 25.1029 48.924C25.2371 49.2582 25.4354 49.5619 25.6861 49.8173C25.9369 50.0726 26.2351 50.2747 26.5634 50.4115C26.8917 50.5484 27.2435 50.6173 27.5982 50.6144C27.953 50.6114 28.3037 50.5366 28.6297 50.3942C28.9557 50.2519 29.2507 50.0449 29.4973 49.7854L36.9037 42.2526L40.484 48.1686C40.9068 48.868 41.4798 49.4609 42.16 49.9028C42.8402 50.3446 43.6098 50.624 44.4113 50.7199C45.2127 50.8158 46.0251 50.7258 46.7875 50.4566C47.5498 50.1874 48.2424 49.746 48.8131 49.1655L49.9816 47.9729C50.2441 47.724 50.4547 47.4238 50.6007 47.0903C50.7468 46.7568 50.8253 46.3968 50.8316 46.0318C50.8379 45.6667 50.772 45.3041 50.6376 44.9656C50.5032 44.6271 50.3032 44.3195 50.0495 44.0614C49.7957 43.8032 49.4935 43.5997 49.1608 43.4629C48.8281 43.3262 48.4718 43.2591 48.113 43.2655C47.7543 43.2719 47.4005 43.3518 47.0727 43.5004C46.745 43.649 46.45 43.8633 46.2054 44.1304L45.0333 45.3194L40.7868 38.2978L49.091 29.8515C49.578 29.339 49.8476 28.6524 49.8418 27.9395C49.8361 27.2266 49.5554 26.5446 49.0602 26.0403C48.5651 25.536 47.8951 25.2497 47.1945 25.2432C46.494 25.2367 45.8189 25.5104 45.3148 26.0054L37.9048 33.5381L34.328 27.6221Z" fill="#2AA0FF"/>
</svg>
